HIERARCHY
ROOT pelvis
{
  OFFSET 0 100 0
  CHANNELS 6 Xposition Yposition Zposition Zrotation Xrotation Yrotation
  JOINT pelvis_right_femur
  {
    OFFSET -10.78128 -3.44521 -0.5502486
    CHANNELS 3 Zrotation Xrotation Yrotation
    JOINT right_femur_tibia
    {
      OFFSET -0.8047443 -44.0398 -0.1307829
      CHANNELS 3 Zrotation Xrotation Yrotation
      JOINT right_tibia_foot
      {
        OFFSET 3.006224 -47.83518 -5
        CHANNELS 3 Zrotation Xrotation Yrotation
        End Site
        {
          OFFSET 0 -5 15
        }
      }
    }
  }
  JOINT pelvis_left_femur
  {
    OFFSET 10.78128 -3.44521 -0.5502486
    CHANNELS 3 Zrotation Xrotation Yrotation
    JOINT left_femur_tibia
    {
      OFFSET 0.8047443 -44.0398 -0.1307829
      CHANNELS 3 Zrotation Xrotation Yrotation
      JOINT left_tibia_foot
      {
        OFFSET -4.370144 -48.10324 -4.275266
        CHANNELS 3 Zrotation Xrotation Yrotation
        End Site
        {
          OFFSET 0 -5 15
        }
      }
    }
  }
  JOINT pelvis_spine1
  {
    OFFSET 0 6.468898 -3.129235
    CHANNELS 3 Zrotation Xrotation Yrotation
    JOINT spine1
    {
      OFFSET 0 23.15396 4.99043
      CHANNELS 3 Zrotation Xrotation Yrotation
      JOINT spine2
      {
        OFFSET 0 20.79997 -5.064912
        CHANNELS 3 Zrotation Xrotation Yrotation
        JOINT neck
        {
          OFFSET 0 14.38658 9.616178
          CHANNELS 3 Zrotation Xrotation Yrotation
          End Site
          {
            OFFSET 0 20 0
          }
        }
      }
      JOINT right_manubrium
      {
        OFFSET -5.722621 16.35077 3.967754
        CHANNELS 3 Zrotation Xrotation Yrotation
        JOINT right_clavicle
        {
          OFFSET -13.16364 1.694482 -4.693211
          CHANNELS 3 Zrotation Xrotation Yrotation
          JOINT right_humerus
          {
            OFFSET -28.5034 -0.3100689 -2.792744
            CHANNELS 3 Zrotation Xrotation Yrotation
            JOINT right_radius
            {
              OFFSET -25.15693 0.02248979 -1.271978
              CHANNELS 3 Zrotation Xrotation Yrotation
              End Site
              {
                OFFSET -15 0 0
              }
            }
          }
        }
      }
      JOINT left_manubrium
      {
        OFFSET 5.722621 16.35077 3.967754
        CHANNELS 3 Zrotation Xrotation Yrotation
        JOINT left_clavicle
        {
          OFFSET 13.16364 1.694482 -4.693211
          CHANNELS 3 Zrotation Xrotation Yrotation
          JOINT left_humerus
          {
            OFFSET 29.39168 -1.063119 -2.237045
            CHANNELS 3 Zrotation Xrotation Yrotation
            JOINT left_radius
            {
              OFFSET 24.59957 -0.9528479 0.9047498
              CHANNELS 3 Zrotation Xrotation Yrotation
              End Site
              {
                OFFSET 15 -0 -0
              }
            }
          }
        }
      }
    }
  }
}
MOTION
Frames: 7
Frame Time: 0.0416666666667
8.980883 101.4278 254.5676 -0.3966054 -2.009246 -2.173413 5.327148 7.403882 10.85918 -0 21.01231 -0 5.591261 -16.41925 -3.790403 4.443683 -33.9628 -0.3556753 -0 26.15298 -0 -7.958662 -9.042162 21.02899 2.146413 -4.535487 9.678219 -2.222645 12.65896 -2.086581 1.775574 19.16072 4.552247 0.1206397 -17.13762 6.343532 2.375923 -23.38062 15.73221 78.74719 14.46222 -6.275955 -0 0 27.74866 -26.09374 8.257898 12.63475 3.919135 -18.81888 -2.93106 -90.76506 22.23073 23.80886 0 0 -18.02123 -3.932506 5.196882 16.32417
9.526756 100.6412 261.0325 -0.3846983 -1.959979 -2.005166 5.075341 9.191068 10.59919 -0 24.75115 -0 6.270107 -15.42055 -3.693434 2.850099 -32.14735 -1.536945 -0 26.0363 -0 -7.881586 -8.561586 20.59973 1.876321 -4.62182 9.72514 -2.349777 12.19943 -2.235482 1.907343 19.15676 4.460731 0.0307324 -17.12304 6.468986 2.00274 -23.89379 15.22701 78.75533 13.85959 -5.805714 -0 0 28.8236 -25.99334 8.234463 12.6222 3.603206 -18.07904 -3.080979 -91.33851 22.59547 24.65191 0 0 -15.78181 -4.580573 4.889606 17.53338
10.23018 100.1711 268.3827 -0.4265642 -2.116188 -2.593392 4.490872 10.82742 10.01699 -0 29.63436 -0 6.833792 -13.31962 -3.906502 1.511067 -31.67239 -2.716532 -0 25.96705 -0 -7.850789 -7.982769 20.13045 1.549717 -5.358762 9.932412 -2.262932 12.01512 -2.273246 2.048623 19.25059 4.457959 -0.01566885 -17.05605 6.691706 1.884057 -23.78431 14.48099 79.44085 13.54876 -6.272312 -0 0 29.0018 -25.73334 8.29878 12.49518 3.414229 -16.90691 -2.963942 -92.00694 22.88902 25.5483 0 0 -13.851 -5.142626 4.670515 18.40615
11.04822 100.2745 275.4961 -0.4240305 -2.10736 -2.572556 3.722075 11.48313 8.841794 -0 36.11822 -0 7.011422 -10.95425 -4.704884 0.7005172 -28.83004 -3.475848 -0 27.42195 -0 -7.534825 -8.439647 19.72295 1.173336 -6.426727 9.622635 -2.147953 11.80911 -2.63567 2.112485 19.58861 4.487028 -0.08897523 -16.93766 6.898743 2.163183 -23.3877 13.57977 80.40088 13.49123 -7.254684 -0 0 28.19368 -25.2772 8.459049 12.15311 3.158089 -16.09147 -2.866145 -92.35862 23.21673 25.96621 0 0 -12.35122 -5.539601 4.544377 18.92146
11.91671 101.0648 282.8995 -0.3949513 -1.996678 -2.165614 3.183107 7.920674 7.841145 -0 42.57151 -0 6.160884 -11.53378 -5.179081 -0.6824959 -25.05646 -4.02474 -0 28.06147 -0 -7.076555 -10.04921 19.23555 0.9929561 -7.630633 9.178994 -2.09023 11.82562 -2.873334 2.062176 19.91659 4.606154 -0.227826 -17.00967 7.137374 2.674472 -22.35506 12.86575 81.52109 13.5597 -8.944564 -0 0 26.58766 -24.68237 8.680662 11.63806 2.844928 -15.65495 -2.842114 -92.1494 23.65548 25.70175 0 0 -11.27597 -5.716868 4.525304 19.09816
12.70887 101.888 289.3201 -0.3551107 -1.838676 -1.586763 3.12915 3.378948 6.229996 -0 48.5688 -0 5.480216 -11.28803 -6.76813 -1.46932 -20.58495 -4.191667 -0 27.2429 -0 -6.505043 -12.19265 18.69703 0.8707551 -8.142369 8.438091 -2.068366 11.71722 -3.181428 1.874905 20.2303 4.835404 -0.4411283 -17.04354 7.410211 3.138046 -21.47923 12.50564 82.60946 13.76366 -10.56528 -0 0 24.76688 -23.99427 8.935853 11.05441 2.627497 -15.84973 -3.070396 -91.33662 24.2316 24.33079 0 0 -10.87791 -5.648967 4.636866 18.96861
13.36132 103.0426 295.3572 -0.324066 -1.704925 -1.09879 2.692045 -2.869012 5.307264 -0 51.93553 -0 4.652137 -11.47879 -8.063333 -1.946221 -16.17991 -4.150282 -0 25.08915 -0 -6.192917 -14.03946 18.29707 0.6386212 -8.353538 7.300817 -1.866323 11.55466 -3.818371 1.551095 20.63701 5.218566 -0.7228726 -16.97878 7.781073 3.583427 -20.67089 12.24898 83.81806 14.0307 -12.22564 -0 0 22.95021 -23.24434 9.189606 10.46464 2.51652 -16.38605 -3.660818 -90.13312 24.88963 22.10635 0 0 -10.87787 -5.438244 4.81925 18.66025
